<svg width="20.703125" height="21.000000" viewBox="0 0 20.7031 21" fill="none" xmlns="http://www.w3.org/2000/svg" xmlns:xlink="http://www.w3.org/1999/xlink">
	<desc>
			Created with Pixso.
	</desc>
	<defs/>
	<path id="Vector" d="M10 8L10 5L7 5L7 3L10 3L10 0L12 0L12 3L15 3L15 5L12 5L12 8L10 8ZM6 21C5.45 21 4.97 20.8 4.58 20.41C4.19 20.01 4 19.55 4 19C4 18.44 4.19 17.98 4.58 17.58C4.97 17.19 5.45 17 6 17C6.54 17 7.02 17.19 7.41 17.58C7.8 17.98 8 18.44 8 19C8 19.55 7.8 20.01 7.41 20.41C7.02 20.8 6.54 21 6 21ZM16 21C15.45 21 14.97 20.8 14.58 20.41C14.19 20.01 14 19.55 14 19C14 18.44 14.19 17.98 14.58 17.58C14.97 17.19 15.45 17 16 17C16.54 17 17.02 17.19 17.41 17.58C17.8 17.98 18 18.44 18 19C18 19.55 17.8 20.01 17.41 20.41C17.02 20.8 16.54 21 16 21ZM0 3L0 1L3.27 1L7.52 10L14.52 10L18.42 3L20.7 3L16.29 10.94C16.11 11.28 15.86 11.54 15.56 11.72C15.25 11.91 14.91 12 14.54 12L7.1 12L6 14L18 14L18 16L6 16C5.25 16 4.67 15.67 4.28 15.02C3.89 14.37 3.88 13.71 4.25 13.05L5.6 10.6L2 3L0 3Z" fill="#1E1E1E" fill-opacity="0.800000" fill-rule="nonzero"/>
</svg>
