<svg width="28.000000" height="28.000000" viewBox="0 0 28 28" fill="none" xmlns="http://www.w3.org/2000/svg" xmlns:xlink="http://www.w3.org/1999/xlink">
	<desc>
			Created with Pixso.
	</desc>
	<defs/>
	<circle id="Ellipse 10" cx="14.000000" cy="14.000000" r="14.000000" fill="#1E1E1E" fill-opacity="1.000000"/>
	<path id="in" d="M10.49 10.92C10.49 11.59 9.9 12.14 9.18 12.14C8.46 12.14 7.87 11.59 7.87 10.92C7.87 10.25 8.46 9.69 9.18 9.69C9.9 9.69 10.49 10.25 10.49 10.92ZM16.39 15.17C15.41 15.17 14.74 15.82 14.73 16.95L14.73 22L12.31 22L12.31 13.27L14.62 13.27L14.62 14.81L14.72 14.81C15.11 13.79 16.05 13.16 17.35 13.16C19.16 13.16 20.36 14.41 20.36 16.44L20.36 22L17.94 22L17.94 16.87C17.94 15.8 17.36 15.17 16.39 15.17ZM10.38 22L7.96 22L7.96 13.27L10.38 13.27L10.38 22Z" fill="#FFFFFF" fill-opacity="1.000000" fill-rule="evenodd"/>
</svg>
