<svg width="28.000000" height="28.000000" viewBox="0 0 28 28" fill="none" xmlns="http://www.w3.org/2000/svg" xmlns:xlink="http://www.w3.org/1999/xlink">
	<desc>
			Created with Pixso.
	</desc>
	<defs/>
	<circle id="Ellipse 10" cx="14.000000" cy="14.000000" r="14.000000" fill="#1E1E1E" fill-opacity="1.000000"/>
	<path id="Path" d="M21.42 9.24C20.85 9.48 20.25 9.65 19.63 9.73C20.28 9.34 20.77 8.74 21 8C20.39 8.36 19.73 8.62 19.02 8.76C18.45 8.15 17.64 7.77 16.75 7.77C15.02 7.77 13.63 9.17 13.63 10.89C13.63 11.14 13.65 11.38 13.7 11.6C11.1 11.48 8.82 10.23 7.28 8.34C7 8.81 6.85 9.34 6.85 9.92C6.85 11 7.4 11.96 8.23 12.51C7.73 12.5 7.24 12.35 6.82 12.12C6.82 12.14 6.82 12.15 6.82 12.16C6.82 13.67 7.9 14.93 9.32 15.22C9.07 15.29 8.79 15.32 8.5 15.32C8.3 15.32 8.1 15.32 7.91 15.27C8.32 16.51 9.46 17.41 10.82 17.44C9.77 18.27 8.42 18.77 6.96 18.77C6.71 18.77 6.46 18.76 6.21 18.73C7.6 19.62 9.23 20.13 11 20.13C16.74 20.13 19.87 15.38 19.87 11.26C19.87 11.12 19.87 10.99 19.86 10.85C20.48 10.42 21 9.87 21.42 9.24Z" fill="#FFFFFF" fill-opacity="1.000000" fill-rule="nonzero"/>
</svg>
