<svg width="39.656250" height="36.832031" viewBox="0 0 39.6562 36.832" fill="none" xmlns="http://www.w3.org/2000/svg" xmlns:xlink="http://www.w3.org/1999/xlink">
	<desc>
			Created with Pixso.
	</desc>
	<defs>
		<filter id="filter_2591_439_dd" x="0.000000" y="0.000000" width="39.656250" height="36.832031" filterUnits="userSpaceOnUse" color-interpolation-filters="sRGB">
			<feFlood flood-opacity="0" result="BackgroundImageFix"/>
			<feGaussianBlur in="BackgroundImage" stdDeviation="8"/>
			<feComposite in2="SourceAlpha" operator="in" result="effect_backgroundBlur_1"/>
			<feBlend mode="normal" in="SourceGraphic" in2="effect_backgroundBlur_1" result="shape"/>
		</filter>
		<clipPath id="clip2591_440">
			<rect id="north_24dp_5F6368_FILL0_wght400_GRAD0_opsz24 2" rx="-0.500000" width="23.000000" height="23.000000" transform="translate(32.304688 9.890625) rotate(90.000000)" fill="white" fill-opacity="0"/>
		</clipPath>
		<linearGradient x1="29.804688" y1="21.390629" x2="7.100143" y2="21.390629" id="paint_linear_2591_441_0" gradientUnits="userSpaceOnUse">
			<stop stop-color="#FFFFFF"/>
			<stop offset="1.000000" stop-color="#FFFFFF" stop-opacity="0.000000"/>
		</linearGradient>
	</defs>
	<g filter="url(#filter_2591_439_dd)">
		<path id="Star 6" d="M23.72 0.73L20.82 2.5C19.49 3.33 17.83 3.46 16.38 2.85L13.24 1.54C9.96 0.17 6.36 2.64 6.46 6.19L6.55 9.59C6.59 11.16 5.87 12.66 4.62 13.62L1.92 15.67C-0.9 17.83 -0.57 22.19 2.56 23.88L5.54 25.5C6.93 26.25 7.87 27.62 8.07 29.18L8.5 32.55C8.96 36.07 12.89 37.96 15.92 36.1L18.82 34.32C20.16 33.5 21.82 33.37 23.27 33.98L26.41 35.28C29.68 36.66 33.28 34.19 33.19 30.63L33.1 27.23C33.06 25.66 33.78 24.16 35.03 23.21L37.73 21.15C40.55 18.99 40.21 14.64 37.09 12.94L34.1 11.33C32.71 10.58 31.78 9.21 31.57 7.64L31.14 4.27C30.69 0.75 26.75 -1.14 23.72 0.73Z" fill="#FFFFFF" fill-opacity="0.270000" fill-rule="evenodd"/>
		<path id="Star 6" d="M20.82 2.5C19.49 3.33 17.83 3.46 16.38 2.85L13.24 1.54C9.96 0.17 6.36 2.64 6.46 6.19L6.55 9.59C6.59 11.16 5.87 12.66 4.62 13.62L1.92 15.67C-0.9 17.83 -0.57 22.19 2.56 23.88L5.54 25.5C6.93 26.25 7.87 27.62 8.07 29.18L8.5 32.55C8.96 36.07 12.89 37.96 15.92 36.1L18.82 34.32C20.16 33.5 21.82 33.37 23.27 33.98L26.41 35.28C29.68 36.66 33.28 34.19 33.19 30.63L33.1 27.23C33.06 25.66 33.78 24.16 35.03 23.21L37.73 21.15C40.55 18.99 40.21 14.64 37.09 12.94L34.1 11.33C32.71 10.58 31.78 9.21 31.57 7.64L31.14 4.27C30.69 0.75 26.75 -1.14 23.72 0.73L20.82 2.5ZM21.08 2.92C19.6 3.82 17.78 3.96 16.19 3.3L13.05 1.99C10.1 0.75 6.85 2.98 6.94 6.18L7.03 9.57C7.08 11.3 6.29 12.95 4.92 14L2.21 16.07C-0.33 18 -0.03 21.92 2.79 23.45L5.78 25.07C7.3 25.89 8.33 27.4 8.55 29.12L8.99 32.49C9.39 35.66 12.94 37.36 15.67 35.68L18.57 33.91C20.04 33 21.86 32.86 23.46 33.52L26.6 34.83C29.55 36.07 32.79 33.84 32.71 30.64L32.61 27.25C32.57 25.52 33.35 23.87 34.73 22.82L37.43 20.76C39.98 18.82 39.67 14.9 36.85 13.37L33.87 11.75C32.35 10.93 31.32 9.42 31.1 7.71L30.66 4.33C30.25 1.16 26.71 -0.54 23.98 1.14L21.08 2.92Z" fill="#FFFFFF" fill-opacity="0.100000" fill-rule="evenodd"/>
	</g>
	<rect id="north_24dp_5F6368_FILL0_wght400_GRAD0_opsz24 2" rx="-0.500000" width="23.000000" height="23.000000" transform="translate(32.304688 9.890625) rotate(90.000000)" fill="#FFFFFF" fill-opacity="0"/>
	<g clip-path="url(#clip2591_440)">
		<path id="Vector" d="M2.8 21.39L24.64 20.39L18.46 15.78L20.35 14.39L29.8 21.39L20.35 28.39L18.42 26.99L24.64 22.39L2.8 21.39Z" fill="url(#paint_linear_2591_441_0)" fill-opacity="1.000000" fill-rule="nonzero"/>
	</g>
</svg>
