<svg width="18.000000" height="20.000000" viewBox="0 0 18 20" fill="none" xmlns="http://www.w3.org/2000/svg" xmlns:xlink="http://www.w3.org/1999/xlink">
	<desc>
			Created with Pixso.
	</desc>
	<defs/>
	<path id="Vector" d="M17 20L1 20C0.44 20 0 19.55 0 19L0 1C0 0.44 0.44 0 1 0L17 0C17.55 0 18 0.44 18 1L18 19C18 19.55 17.55 20 17 20ZM16 17.31L16 2.68C16 2.3 15.69 2 15.31 2L2.68 2C2.3 2 2 2.3 2 2.68L2 17.31C2 17.69 2.3 18 2.68 18L15.31 18C15.69 18 16 17.69 16 17.31ZM6 4.68L6 6C6 7.65 7.34 9 9 9C10.65 9 12 7.65 12 6L12 4.68C12 4.3 12.3 4 12.68 4L13.31 4C13.69 4 14 4.3 14 4.68L14 6C14 8.76 11.75 11 9 11C6.24 11 4 8.76 4 6L4 4.68C4 4.3 4.3 4 4.68 4L5.31 4C5.69 4 6 4.3 6 4.68Z" fill="#FFFFFF" fill-opacity="1.000000" fill-rule="nonzero"/>
</svg>
