    <svg width="24" height="24" viewBox="0 0 24 24" fill="none" xmlns="http://www.w3.org/2000/svg">
<path d="M4.00827 6.41857L0.765625 3.17593L2.17984 1.76172L5.42248 5.00436H20.6642C21.2165 5.00436 21.6642 5.45208 21.6642 6.00436C21.6642 6.10168 21.65 6.19849 21.6221 6.29171L19.2221 14.2917C19.0952 14.7147 18.7058 15.0044 18.2642 15.0044H6.00827V17.0044H17.0083V19.0044H5.00827C4.45598 19.0044 4.00827 18.5566 4.00827 18.0044V6.41857ZM6.00827 7.00436V13.0044H17.5202L19.3202 7.00436H6.00827ZM5.50827 23.0044C4.67984 23.0044 4.00827 22.3328 4.00827 21.5044C4.00827 20.6759 4.67984 20.0044 5.50827 20.0044C6.3367 20.0044 7.00827 20.6759 7.00827 21.5044C7.00827 22.3328 6.3367 23.0044 5.50827 23.0044ZM17.5083 23.0044C16.6798 23.0044 16.0083 22.3328 16.0083 21.5044C16.0083 20.6759 16.6798 20.0044 17.5083 20.0044C18.3367 20.0044 19.0083 20.6759 19.0083 21.5044C19.0083 22.3328 18.3367 23.0044 17.5083 23.0044Z" fill="#232D50"/>
</svg>
