<svg width="73.000000" height="768.000000" viewBox="0 0 73 768" fill="none" xmlns="http://www.w3.org/2000/svg" xmlns:xlink="http://www.w3.org/1999/xlink">
	<desc>
			Created with Pixso.
	</desc>
	<defs>
		<clipPath id="clip2591_750">
			<rect id="arrow-left-double-fill" rx="-0.500000" width="23.000000" height="23.000000" transform="matrix(-1 0 0 1 44.5 698.5)" fill="white" fill-opacity="0"/>
		</clipPath>
		<clipPath id="clip2591_752">
			<rect id="arrow-left-s-line" rx="-0.500000" width="23.000000" height="23.000000" transform="matrix(-1 0 0 1 51.5 698.5)" fill="white" fill-opacity="0"/>
		</clipPath>
		<clipPath id="clip2591_756">
			<rect id="arrow-left-double-fill" rx="-0.500000" width="23.000000" height="23.000000" transform="matrix(-1 0 0 1 44.5 46.5)" fill="white" fill-opacity="0"/>
		</clipPath>
		<clipPath id="clip2591_758">
			<rect id="arrow-left-s-line" rx="-0.500000" width="23.000000" height="23.000000" transform="matrix(-1 0 0 1 51.5 46.5)" fill="white" fill-opacity="0"/>
		</clipPath>
		<clipPath id="clip2591_747">
			<rect id="Frame 2585" rx="4.500000" width="72.000000" height="767.000000" transform="translate(0.500000 0.500000)" fill="white" fill-opacity="0"/>
		</clipPath>
	</defs>
	<rect id="Frame 2585" rx="4.500000" width="72.000000" height="767.000000" transform="translate(0.500000 0.500000)" fill="#EBECF4" fill-opacity="1.000000"/>
	<g clip-path="url(#clip2591_747)">
		<rect id="arrow-left-double-fill" rx="-0.500000" width="23.000000" height="23.000000" transform="matrix(-1 0 0 1 44.5 698.5)" fill="#FFFFFF" fill-opacity="0"/>
		<g clip-path="url(#clip2591_750)">
			<path id="Vector" d="M37 710L30.78 716.2L29.37 714.79L34.17 710L29.37 705.2L30.78 703.79L37 710ZM31.35 710L25.14 716.2L23.72 714.79L28.52 710L23.72 705.2L25.14 703.79L31.35 710Z" fill="#1E1E1E" fill-opacity="0.500000" fill-rule="nonzero"/>
		</g>
		<rect id="arrow-left-s-line" rx="-0.500000" width="23.000000" height="23.000000" transform="matrix(-1 0 0 1 51.5 698.5)" fill="#FFFFFF" fill-opacity="0"/>
		<g clip-path="url(#clip2591_752)">
			<path id="Vector" d="M40.17 710L35.21 714.94L36.63 716.36L43 710L36.63 703.63L35.21 705.05L40.17 710Z" fill="#1E1E1E" fill-opacity="1.000000" fill-rule="nonzero"/>
		</g>
		<rect id="arrow-left-double-fill" rx="-0.500000" width="23.000000" height="23.000000" transform="matrix(-1 0 0 1 44.5 46.5)" fill="#FFFFFF" fill-opacity="0"/>
		<g clip-path="url(#clip2591_756)">
			<path id="Vector" d="M37 58L30.78 64.2L29.37 62.79L34.17 58L29.37 53.2L30.78 51.79L37 58ZM31.35 58L25.14 64.2L23.72 62.79L28.52 58L23.72 53.2L25.14 51.79L31.35 58Z" fill="#1E1E1E" fill-opacity="0.500000" fill-rule="nonzero"/>
		</g>
		<rect id="arrow-left-s-line" rx="-0.500000" width="23.000000" height="23.000000" transform="matrix(-1 0 0 1 51.5 46.5)" fill="#FFFFFF" fill-opacity="0"/>
		<g clip-path="url(#clip2591_758)">
			<path id="Vector" d="M40.17 58L35.21 62.94L36.63 64.36L43 58L36.63 51.63L35.21 53.05L40.17 58Z" fill="#1E1E1E" fill-opacity="1.000000" fill-rule="nonzero"/>
		</g>
		<path id="Featured course" d="M45 440.96L45 442.72L33.36 442.72L33.36 435.5L34.87 435.5L34.87 440.96L38.42 440.96L38.42 436.02L39.92 436.02L39.92 440.96L45 440.96ZM43.64 379.13C44.19 379.44 45.17 380.06 45.17 381.65C45.17 383.77 43.47 385.3 40.65 385.3C37.82 385.3 36.16 383.75 36.16 381.64C36.16 380.02 37.14 379.44 37.68 379.13L37.68 379.03L33.36 379.03L33.36 377.33L45 377.33L45 378.99L43.64 378.99L43.64 379.13ZM36.27 413.33L36.27 411.54L37.63 411.54L37.63 413.33L42.43 413.33C43.42 413.33 43.6 412.83 43.6 412.28C43.6 412.01 43.55 411.8 43.52 411.68L44.93 411.38C45 411.58 45.1 411.94 45.11 412.48C45.14 413.82 44.37 415.03 42.78 415.02L37.63 415.02L37.63 416.3L36.27 416.3L36.27 415.02L34.18 415.02L34.18 413.33L36.27 413.33ZM45 398.45L45 400.15L36.27 400.15L36.27 398.51L37.66 398.51L37.66 398.42C36.72 398.1 36.14 397.22 36.14 396.2C36.14 395.98 36.16 395.65 36.18 395.48L37.8 395.48C37.76 395.62 37.7 396.01 37.7 396.37C37.7 397.57 38.52 398.45 39.67 398.45L45 398.45ZM45 340.74L45 342.44L36.27 342.44L36.27 340.8L37.66 340.8L37.66 340.71C36.72 340.39 36.14 339.51 36.14 338.49C36.14 338.27 36.16 337.94 36.18 337.77L37.8 337.77C37.76 337.9 37.7 338.3 37.7 338.65C37.7 339.86 38.52 340.74 39.67 340.74L45 340.74ZM42.81 426.72C44.23 427.1 45.17 428.45 45.17 430.35C45.17 432.93 43.4 434.51 40.69 434.51C38.01 434.51 36.16 432.91 36.16 430.47C36.16 428.5 37.39 426.61 40.54 426.61L41.14 426.61L41.14 432.82C42.82 432.77 43.77 431.79 43.77 430.33C43.77 429.37 43.35 428.63 42.52 428.32L42.81 426.72ZM43.8 419.6C44.46 419.92 45.19 420.73 45.19 422.18C45.19 423.84 44.25 425.12 42.53 425.12C40.55 425.12 40.12 423.43 39.92 421.78C39.74 420.21 39.75 419.57 39.13 419.57L39.09 419.57C38.1 419.57 37.53 420.14 37.53 421.23C37.53 422.37 38.12 423.01 38.75 423.26L38.38 424.86C36.79 424.29 36.16 422.84 36.16 421.26C36.16 419.87 36.66 417.87 39.2 417.87L45 417.87L45 419.53L43.8 419.53L43.8 419.6ZM42.81 386.92C44.23 387.31 45.17 388.65 45.17 390.56C45.17 393.13 43.4 394.71 40.69 394.71C38.01 394.71 36.16 393.11 36.16 390.68C36.16 388.7 37.39 386.81 40.54 386.81L41.14 386.81L41.14 393.02C42.82 392.97 43.77 392 43.77 390.54C43.77 389.57 43.35 388.84 42.52 388.53L42.81 386.92ZM42.23 363.41C43.93 363.6 45.17 364.93 45.17 367C45.17 369.53 43.3 371.06 40.67 371.06C38.01 371.06 36.16 369.47 36.16 367.01C36.16 365.03 37.32 363.59 39.08 363.41L39.08 365.06C38.27 365.25 37.58 365.9 37.58 366.99C37.58 368.4 38.76 369.35 40.63 369.35C42.53 369.35 43.73 368.42 43.73 366.99C43.73 366.01 43.18 365.28 42.23 365.06L42.23 363.41ZM40.67 353.84C43.37 353.84 45.17 355.45 45.17 357.91C45.17 360.37 43.37 361.98 40.67 361.98C37.96 361.98 36.16 360.37 36.16 357.91C36.16 355.45 37.96 353.84 40.67 353.84ZM36.16 333.05C36.16 331.17 37.04 330.1 38.4 329.75L38.67 331.29C38.08 331.49 37.5 331.98 37.5 333.03C37.5 334 37.98 334.73 38.65 334.72C39.24 334.73 39.56 334.31 39.79 333.35L40.11 331.97C40.48 330.37 41.24 329.58 42.47 329.58C44.05 329.58 45.17 331.04 45.17 333.15C45.17 335.11 44.3 336.39 42.76 336.68L42.51 335.03C43.37 334.83 43.8 334.18 43.8 333.16C43.8 332.05 43.27 331.32 42.6 331.32C42.05 331.32 41.68 331.72 41.49 332.56L41.17 334.03C40.8 335.67 39.98 336.42 38.74 336.42C37.19 336.42 36.16 335.02 36.16 333.05ZM42.81 320.32C44.23 320.71 45.17 322.05 45.17 323.96C45.17 326.53 43.4 328.11 40.69 328.11C38.01 328.11 36.16 326.51 36.16 324.07C36.16 322.1 37.39 320.21 40.54 320.21L41.14 320.21L41.14 326.42C42.82 326.37 43.77 325.39 43.77 323.94C43.77 322.97 43.35 322.23 42.52 321.93L42.81 320.32ZM43.56 406.18C43.56 405.23 42.86 404.13 41.37 404.13L36.27 404.13L36.27 402.43L45 402.43L45 404.1L43.48 404.1L43.48 404.19C44.42 404.59 45.11 405.49 45.11 406.8C45.11 408.47 43.98 409.66 41.82 409.66L36.27 409.66L36.27 407.96L41.62 407.96C42.8 407.96 43.56 407.24 43.56 406.18ZM43.56 348.47C43.56 347.52 42.86 346.42 41.37 346.42L36.27 346.42L36.27 344.72L45 344.72L45 346.39L43.48 346.39L43.48 346.48C44.42 346.88 45.11 347.78 45.11 349.09C45.11 350.76 43.98 351.95 41.82 351.95L36.27 351.95L36.27 350.25L41.62 350.25C42.8 350.25 43.56 349.53 43.56 348.47ZM37.56 430.46C37.56 431.84 38.63 432.74 39.87 432.81L39.87 428.27C38.53 428.28 37.56 429.14 37.56 430.46ZM37.56 390.66C37.56 392.05 38.63 392.95 39.87 393.01L39.87 388.48C38.53 388.48 37.56 389.35 37.56 390.66ZM37.56 324.06C37.56 325.45 38.63 326.34 39.87 326.41L39.87 321.87C38.53 321.88 37.56 322.75 37.56 324.06ZM40.67 360.26C42.34 360.26 43.75 359.51 43.75 357.9C43.75 356.31 42.34 355.56 40.67 355.56C39 355.56 37.57 356.31 37.57 357.9C37.57 359.51 39 360.26 40.67 360.26ZM40.63 383.59C42.38 383.59 43.72 382.8 43.72 381.28C43.72 379.81 42.47 379 40.63 379C38.81 379 37.6 379.8 37.6 381.28C37.6 382.81 38.9 383.59 40.63 383.59ZM42.55 423.46C43.39 423.46 43.82 422.77 43.82 421.81C43.82 420.39 42.88 419.57 41.85 419.57L40.72 419.57C40.97 419.81 41.12 421.12 41.19 421.67C41.32 422.66 41.64 423.46 42.55 423.46Z" fill="#242C50" fill-opacity="1.000000" fill-rule="evenodd"/>
	</g>
</svg>
