<svg width="769.000000" height="768.000000" viewBox="0 0 769 768" fill="none" xmlns="http://www.w3.org/2000/svg" xmlns:xlink="http://www.w3.org/1999/xlink">
	<desc>
			Created with Pixso.
	</desc>
	<defs>
		<clipPath id="clip2591_744">
			<rect id="arrow-left-s-line" rx="-0.500000" width="23.000000" height="23.000000" transform="translate(0.500000 46.500000)" fill="white" fill-opacity="0"/>
		</clipPath>
		<clipPath id="clip2591_750">
			<rect id="arrow-left-double-fill" rx="-0.500000" width="23.000000" height="23.000000" transform="matrix(-1 0 0 1 740.5 698.5)" fill="white" fill-opacity="0"/>
		</clipPath>
		<clipPath id="clip2591_752">
			<rect id="arrow-left-s-line" rx="-0.500000" width="23.000000" height="23.000000" transform="matrix(-1 0 0 1 747.5 698.5)" fill="white" fill-opacity="0"/>
		</clipPath>
		<clipPath id="clip2591_756">
			<rect id="arrow-left-double-fill" rx="-0.500000" width="23.000000" height="23.000000" transform="matrix(-1 0 0 1 740.5 46.5)" fill="white" fill-opacity="0"/>
		</clipPath>
		<clipPath id="clip2591_758">
			<rect id="arrow-left-s-line" rx="-0.500000" width="23.000000" height="23.000000" transform="matrix(-1 0 0 1 747.5 46.5)" fill="white" fill-opacity="0"/>
		</clipPath>
		<clipPath id="clip2591_747">
			<rect id="Frame 2585" rx="4.500000" width="72.000000" height="767.000000" transform="translate(696.500000 0.500000)" fill="white" fill-opacity="0"/>
		</clipPath>
	</defs>
	<path id="Vector" d="M14 58L20.21 64.2L21.62 62.79L16.82 58L21.62 53.2L20.21 51.79L14 58ZM19.64 58L25.85 64.2L27.27 62.79L22.47 58L27.27 53.2L25.85 51.79L19.64 58Z" fill="#F1E8E8" fill-opacity="0.500000" fill-rule="nonzero"/>
	<rect id="arrow-left-s-line" rx="-0.500000" width="23.000000" height="23.000000" transform="translate(0.500000 46.500000)" fill="#FFFFFF" fill-opacity="0"/>
	<g clip-path="url(#clip2591_744)">
		<path id="Vector" d="M10.82 58L15.78 62.94L14.36 64.36L8 58L14.36 51.63L15.78 53.05L10.82 58Z" fill="#FFFFFF" fill-opacity="1.000000" fill-rule="nonzero"/>
	</g>
	<rect id="Frame 2585" rx="4.500000" width="72.000000" height="767.000000" transform="translate(696.500000 0.500000)" fill="#EBECF4" fill-opacity="1.000000"/>
	<g clip-path="url(#clip2591_747)">
		<rect id="arrow-left-double-fill" rx="-0.500000" width="23.000000" height="23.000000" transform="matrix(-1 0 0 1 740.5 698.5)" fill="#FFFFFF" fill-opacity="0"/>
		<g clip-path="url(#clip2591_750)">
			<path id="Vector" d="M733 710L726.78 716.2L725.37 714.79L730.17 710L725.37 705.2L726.78 703.79L733 710ZM727.35 710L721.14 716.2L719.72 714.79L724.52 710L719.72 705.2L721.14 703.79L727.35 710Z" fill="#1E1E1E" fill-opacity="0.500000" fill-rule="nonzero"/>
		</g>
		<rect id="arrow-left-s-line" rx="-0.500000" width="23.000000" height="23.000000" transform="matrix(-1 0 0 1 747.5 698.5)" fill="#FFFFFF" fill-opacity="0"/>
		<g clip-path="url(#clip2591_752)">
			<path id="Vector" d="M736.17 710L731.21 714.94L732.63 716.36L739 710L732.63 703.63L731.21 705.05L736.17 710Z" fill="#1E1E1E" fill-opacity="1.000000" fill-rule="nonzero"/>
		</g>
		<rect id="arrow-left-double-fill" rx="-0.500000" width="23.000000" height="23.000000" transform="matrix(-1 0 0 1 740.5 46.5)" fill="#FFFFFF" fill-opacity="0"/>
		<g clip-path="url(#clip2591_756)">
			<path id="Vector" d="M733 58L726.78 64.2L725.37 62.79L730.17 58L725.37 53.2L726.78 51.79L733 58ZM727.35 58L721.14 64.2L719.72 62.79L724.52 58L719.72 53.2L721.14 51.79L727.35 58Z" fill="#1E1E1E" fill-opacity="0.500000" fill-rule="nonzero"/>
		</g>
		<rect id="arrow-left-s-line" rx="-0.500000" width="23.000000" height="23.000000" transform="matrix(-1 0 0 1 747.5 46.5)" fill="#FFFFFF" fill-opacity="0"/>
		<g clip-path="url(#clip2591_758)">
			<path id="Vector" d="M736.17 58L731.21 62.94L732.63 64.36L739 58L732.63 51.63L731.21 53.05L736.17 58Z" fill="#1E1E1E" fill-opacity="1.000000" fill-rule="nonzero"/>
		</g>
		<path id="Featured course" d="M741 440.96L741 442.72L729.36 442.72L729.36 435.5L730.87 435.5L730.87 440.96L734.42 440.96L734.42 436.02L735.92 436.02L735.92 440.96L741 440.96ZM739.64 379.13C740.19 379.44 741.17 380.06 741.17 381.65C741.17 383.77 739.47 385.3 736.65 385.3C733.82 385.3 732.16 383.75 732.16 381.64C732.16 380.02 733.14 379.44 733.68 379.13L733.68 379.03L729.36 379.03L729.36 377.33L741 377.33L741 378.99L739.64 378.99L739.64 379.13ZM732.27 413.33L732.27 411.54L733.63 411.54L733.63 413.33L738.43 413.33C739.42 413.33 739.6 412.83 739.6 412.28C739.6 412.01 739.55 411.8 739.52 411.68L740.93 411.38C741 411.58 741.1 411.94 741.11 412.48C741.14 413.82 740.37 415.03 738.78 415.02L733.63 415.02L733.63 416.3L732.27 416.3L732.27 415.02L730.18 415.02L730.18 413.33L732.27 413.33ZM741 398.45L741 400.15L732.27 400.15L732.27 398.51L733.66 398.51L733.66 398.42C732.72 398.1 732.14 397.22 732.14 396.2C732.14 395.98 732.16 395.65 732.18 395.48L733.8 395.48C733.76 395.62 733.7 396.01 733.7 396.37C733.7 397.57 734.52 398.45 735.67 398.45L741 398.45ZM741 340.74L741 342.44L732.27 342.44L732.27 340.8L733.66 340.8L733.66 340.71C732.72 340.39 732.14 339.51 732.14 338.49C732.14 338.27 732.16 337.94 732.18 337.77L733.8 337.77C733.76 337.9 733.7 338.3 733.7 338.65C733.7 339.86 734.52 340.74 735.67 340.74L741 340.74ZM738.81 426.72C740.23 427.1 741.17 428.45 741.17 430.35C741.17 432.93 739.4 434.51 736.69 434.51C734.01 434.51 732.16 432.91 732.16 430.47C732.16 428.5 733.39 426.61 736.54 426.61L737.14 426.61L737.14 432.82C738.82 432.77 739.77 431.79 739.77 430.33C739.77 429.37 739.35 428.63 738.52 428.32L738.81 426.72ZM739.8 419.6C740.46 419.92 741.19 420.73 741.19 422.18C741.19 423.84 740.25 425.12 738.53 425.12C736.55 425.12 736.12 423.43 735.92 421.78C735.74 420.21 735.75 419.57 735.13 419.57L735.09 419.57C734.1 419.57 733.53 420.14 733.53 421.23C733.53 422.37 734.12 423.01 734.75 423.26L734.38 424.86C732.79 424.29 732.16 422.84 732.16 421.26C732.16 419.87 732.66 417.87 735.2 417.87L741 417.87L741 419.53L739.8 419.53L739.8 419.6ZM738.81 386.92C740.23 387.31 741.17 388.65 741.17 390.56C741.17 393.13 739.4 394.71 736.69 394.71C734.01 394.71 732.16 393.11 732.16 390.68C732.16 388.7 733.39 386.81 736.54 386.81L737.14 386.81L737.14 393.02C738.82 392.97 739.77 392 739.77 390.54C739.77 389.57 739.35 388.84 738.52 388.53L738.81 386.92ZM738.23 363.41C739.93 363.6 741.17 364.93 741.17 367C741.17 369.53 739.3 371.06 736.67 371.06C734.01 371.06 732.16 369.47 732.16 367.01C732.16 365.03 733.32 363.59 735.09 363.41L735.09 365.06C734.27 365.25 733.59 365.9 733.59 366.99C733.59 368.4 734.76 369.35 736.63 369.35C738.53 369.35 739.73 368.42 739.73 366.99C739.73 366.01 739.18 365.28 738.23 365.06L738.23 363.41ZM736.67 353.84C739.37 353.84 741.17 355.45 741.17 357.91C741.17 360.37 739.37 361.98 736.67 361.98C733.96 361.98 732.16 360.37 732.16 357.91C732.16 355.45 733.96 353.84 736.67 353.84ZM732.16 333.05C732.16 331.17 733.04 330.1 734.4 329.75L734.67 331.29C734.09 331.49 733.5 331.98 733.5 333.03C733.5 334 733.98 334.73 734.65 334.72C735.24 334.73 735.56 334.31 735.79 333.35L736.11 331.97C736.48 330.37 737.24 329.58 738.47 329.58C740.05 329.58 741.17 331.04 741.17 333.15C741.17 335.11 740.3 336.39 738.76 336.68L738.51 335.03C739.37 334.83 739.8 334.18 739.8 333.16C739.8 332.05 739.27 331.32 738.6 331.32C738.05 331.32 737.68 331.72 737.49 332.56L737.17 334.03C736.8 335.67 735.98 336.42 734.74 336.42C733.19 336.42 732.16 335.02 732.16 333.05ZM738.81 320.32C740.23 320.71 741.17 322.05 741.17 323.96C741.17 326.53 739.4 328.11 736.69 328.11C734.01 328.11 732.16 326.51 732.16 324.07C732.16 322.1 733.39 320.21 736.54 320.21L737.14 320.21L737.14 326.42C738.82 326.37 739.77 325.39 739.77 323.94C739.77 322.97 739.35 322.23 738.52 321.93L738.81 320.32ZM739.56 406.18C739.56 405.23 738.86 404.13 737.37 404.13L732.27 404.13L732.27 402.43L741 402.43L741 404.1L739.48 404.1L739.48 404.19C740.42 404.59 741.11 405.49 741.11 406.8C741.11 408.47 739.98 409.66 737.82 409.66L732.27 409.66L732.27 407.96L737.62 407.96C738.8 407.96 739.56 407.24 739.56 406.18ZM739.56 348.47C739.56 347.52 738.86 346.42 737.37 346.42L732.27 346.42L732.27 344.72L741 344.72L741 346.39L739.48 346.39L739.48 346.48C740.42 346.88 741.11 347.78 741.11 349.09C741.11 350.76 739.98 351.95 737.82 351.95L732.27 351.95L732.27 350.25L737.62 350.25C738.8 350.25 739.56 349.53 739.56 348.47ZM733.56 430.46C733.56 431.84 734.63 432.74 735.87 432.81L735.87 428.27C734.53 428.28 733.56 429.14 733.56 430.46ZM733.56 390.66C733.56 392.05 734.63 392.95 735.87 393.01L735.87 388.48C734.53 388.48 733.56 389.35 733.56 390.66ZM733.56 324.06C733.56 325.45 734.63 326.34 735.87 326.41L735.87 321.87C734.53 321.88 733.56 322.75 733.56 324.06ZM736.67 360.26C738.34 360.26 739.75 359.51 739.75 357.9C739.75 356.31 738.34 355.56 736.67 355.56C735 355.56 733.57 356.31 733.57 357.9C733.57 359.51 735 360.26 736.67 360.26ZM736.63 383.59C738.38 383.59 739.72 382.8 739.72 381.28C739.72 379.81 738.47 379 736.63 379C734.81 379 733.6 379.8 733.6 381.28C733.6 382.81 734.9 383.59 736.63 383.59ZM738.55 423.46C739.39 423.46 739.82 422.77 739.82 421.81C739.82 420.39 738.88 419.57 737.85 419.57L736.72 419.57C736.97 419.81 737.12 421.12 737.19 421.67C737.32 422.66 737.64 423.46 738.55 423.46Z" fill="#242C50" fill-opacity="1.000000" fill-rule="evenodd"/>
	</g>
</svg>
