<svg width="59" height="56" viewBox="0 0 59 56" fill="none" xmlns="http://www.w3.org/2000/svg">
<path d="M23.5927 3.70535C26.4328 -0.306745 32.3862 -0.306747 35.2263 3.70535L40.5363 11.2064C41.4405 12.4838 42.7401 13.428 44.2344 13.8932L53.0092 16.6253C57.7026 18.0867 59.5423 23.7487 56.6042 27.6896L51.1112 35.0576C50.1757 36.3123 49.6793 37.8401 49.6986 39.405L49.8117 48.5946C49.8723 53.5098 45.0559 57.0091 40.3999 55.4327L31.6951 52.4853C30.2127 51.9834 28.6063 51.9834 27.1239 52.4853L18.4191 55.4327C13.7631 57.0091 8.94676 53.5098 9.00729 48.5946L9.12044 39.405C9.13971 37.8401 8.64331 36.3123 7.70787 35.0576L2.21485 27.6896C-0.723229 23.7487 1.11646 18.0867 5.80984 16.6253L14.5846 13.8932C16.0789 13.428 17.3785 12.4838 18.2827 11.2064L23.5927 3.70535Z" fill="white"/>
<path d="M22.6137 32.9529L33.9271 24.4124L31.6204 24.1538L31.8192 22.2537L37.636 22.8626L37.0677 28.2914L35.0319 28.0783L35.2392 25.9219L23.9259 34.4623L22.6137 32.9529Z" fill="#5F6368"/>
</svg>
