<svg width="16.000000" height="16.183594" viewBox="0 0 16 16.1836" fill="none" xmlns="http://www.w3.org/2000/svg" xmlns:xlink="http://www.w3.org/1999/xlink">
	<desc>
			Created with Pixso.
	</desc>
	<defs/>
	<circle id="Ellipse 16" cx="8.000000" cy="8.000000" r="8.000000" fill="#FFFFFF" fill-opacity="1.000000"/>
	<circle id="Ellipse 16" cx="8.000000" cy="8.000000" r="7.750000" stroke="#000000" stroke-opacity="0.400000" stroke-width="0.500000"/>
	<path id="c" d="M11.2 13.45C10.97 15 9.7 16.18 7.77 16.18C5.31 16.18 3.81 14.29 3.81 11.68C3.81 9.02 5.38 7.16 7.75 7.16C9.58 7.16 10.97 8.25 11.2 9.88L9.86 9.88C9.66 9.08 8.95 8.36 7.77 8.36C6.2 8.36 5.16 9.66 5.16 11.63C5.16 13.66 6.18 14.97 7.77 14.97C8.81 14.97 9.61 14.41 9.86 13.45L11.2 13.45Z" fill="#000000" fill-opacity="0.400000" fill-rule="evenodd"/>
</svg>
