<svg width="35" height="29" viewBox="0 0 35 29" fill="none" xmlns="http://www.w3.org/2000/svg">
<g filter="url(#filter0_b_2660_1228)">
<path d="M26.0381 -10.4313C29.3312 -12.4537 33.6142 -10.4054 34.107 -6.57247L34.5782 -2.90771C34.7965 -1.20947 35.8181 0.280213 37.3236 1.09575L40.5725 2.85565C43.9705 4.69633 44.3381 9.42971 41.2651 11.773L38.3269 14.0134C36.9653 15.0516 36.186 16.6812 36.2325 18.3927L36.3328 22.0863C36.4378 25.9494 32.5223 28.6345 28.9565 27.1448L25.5471 25.7204C23.9672 25.0604 22.1664 25.2003 20.7073 26.0963L17.5588 28.03C14.2657 30.0524 9.98265 28.0041 9.48985 24.1711L9.01867 20.5063C8.80033 18.8081 7.77876 17.3184 6.27323 16.5029L3.02436 14.743C-0.373633 12.9023 -0.74126 8.16893 2.33178 5.82567L5.26997 3.58524C6.63152 2.54703 7.41083 0.917481 7.36434 -0.794109L7.26402 -4.48766C7.1591 -8.35075 11.0745 -11.0358 14.6404 -9.54612L18.0497 -8.12179C19.6296 -7.46176 21.4305 -7.60162 22.8895 -8.49768L26.0381 -10.4313Z" fill="white" fill-opacity="0.27"/>
<path d="M26.1768 -10.2055C29.306 -12.1272 33.3758 -10.1809 33.8441 -6.53867L34.3153 -2.87391C34.5445 -1.09114 35.6169 0.472687 37.1974 1.32881L40.4462 3.08871C43.6751 4.83778 44.0244 9.33556 41.1044 11.5622L38.1662 13.8026C36.7368 14.8925 35.9187 16.6032 35.9675 18.3999L36.0679 22.0935C36.1676 25.7643 32.447 28.3157 29.0587 26.9002L25.6493 25.4758C23.9908 24.783 22.1003 24.9298 20.5686 25.8704L17.42 27.8041C14.2909 29.7258 10.221 27.7795 9.75275 24.1373L9.28157 20.4725C9.05236 18.6898 7.97994 17.1259 6.39948 16.2698L3.15061 14.5099C-0.0782527 12.7609 -0.427582 8.26307 2.4925 6.03645L5.43069 3.79602C6.86001 2.70613 7.67811 0.995476 7.62931 -0.801306L7.52899 -4.49486C7.42929 -8.16567 11.1498 -10.7171 14.5382 -9.30154L17.9475 -7.87721C19.6061 -7.18432 21.4966 -7.33116 23.0283 -8.27181L26.1768 -10.2055Z" stroke="white" stroke-opacity="0.1" stroke-width="0.530129"/>
</g>
<defs>
<filter id="filter0_b_2660_1228" x="-25.8603" y="-37.3173" width="95.3143" height="92.2361" filterUnits="userSpaceOnUse" color-interpolation-filters="sRGB">
<feFlood flood-opacity="0" result="BackgroundImageFix"/>
<feGaussianBlur in="BackgroundImageFix" stdDeviation="13.0473"/>
<feComposite in2="SourceAlpha" operator="in" result="effect1_backgroundBlur_2660_1228"/>
<feBlend mode="normal" in="SourceGraphic" in2="effect1_backgroundBlur_2660_1228" result="shape"/>
</filter>
</defs>
</svg>
