<svg width="96.000000" height="115.000000" viewBox="0 0 96 115" fill="none" xmlns="http://www.w3.org/2000/svg" xmlns:xlink="http://www.w3.org/1999/xlink">
	<desc>
			Created with Pixso.
	</desc>
	<defs>
		<filter id="filter_2591_709_dd" x="14.000000" y="0.000000" width="82.000000" height="97.000000" filterUnits="userSpaceOnUse" color-interpolation-filters="sRGB">
			<feFlood flood-opacity="0" result="BackgroundImageFix"/>
			<feGaussianBlur in="BackgroundImage" stdDeviation="13"/>
			<feComposite in2="SourceAlpha" operator="in" result="effect_backgroundBlur_1"/>
			<feBlend mode="normal" in="SourceGraphic" in2="effect_backgroundBlur_1" result="shape"/>
		</filter>
		<clipPath id="clip2591_709">
			<rect id="Frame 2589" rx="14.500000" width="79.000000" height="94.000000" transform="translate(15.500000 1.500000)" fill="white" fill-opacity="0"/>
		</clipPath>
		<linearGradient x1="4.500004" y1="59.999981" x2="57.999996" y2="94.000000" id="paint_linear_2591_708_0" gradientUnits="userSpaceOnUse">
			<stop stop-color="#C2C3F8"/>
			<stop offset="1.000000" stop-color="#EEEEEF"/>
		</linearGradient>
	</defs>
	<rect id="Frame 2588" rx="9.500000" width="81.000000" height="73.000000" transform="translate(0.500000 41.500000)" fill="url(#paint_linear_2591_708_0)" fill-opacity="1.000000"/>
	<g filter="url(#filter_2591_709_dd)">
		<rect id="Frame 2589" rx="14.500000" width="79.000000" height="94.000000" transform="translate(15.500000 1.500000)" fill="#FFFFFF" fill-opacity="0.270000"/>
		<g clip-path="url(#clip2591_709)">
			<path id="8" d="M72.54 60.64C72.5 68.2 66.01 73.64 56.73 73.64C47.34 73.64 40.85 68.2 40.9 60.64C40.85 54.75 44.79 49.75 49.9 48.81L49.9 48.54C45.45 47.4 42.59 43.14 42.64 38.18C42.59 31.09 48.54 25.81 56.73 25.81C64.81 25.81 70.76 31.09 70.81 38.18C70.76 43.14 67.9 47.4 63.54 48.54L63.54 48.81C68.56 49.75 72.5 54.75 72.54 60.64ZM48.09 38.54C48.04 43.35 51.64 46.54 56.73 46.54C61.73 46.54 65.31 43.35 65.35 38.54C65.31 33.81 61.85 30.73 56.73 30.73C51.5 30.73 48.04 33.81 48.09 38.54ZM46.45 60.35C46.4 65.35 50.34 68.64 56.73 68.64C63.01 68.64 66.95 65.35 67 60.35C66.95 55.1 62.6 51.35 56.73 51.35C50.75 51.35 46.4 55.1 46.45 60.35Z" fill="#242C50" fill-opacity="1.000000" fill-rule="evenodd"/>
			<path id="Weeks" d="M35.97 87L34.52 87L31.33 75.36L32.77 75.36L35.2 84.83L35.31 84.83L37.79 75.36L39.38 75.36L41.86 84.83L41.97 84.83L44.41 75.36L45.83 75.36L42.66 87L41.2 87L38.63 77.72L38.54 77.72L35.97 87ZM66.56 87L65.22 87L65.22 75.36L66.56 75.36L66.56 82.16L66.72 82.16L70.54 78.27L72.2 78.27L68.51 82L72.47 87L70.77 87L67.5 82.86L66.56 83.73L66.56 87ZM53.72 84.97C53.31 86.29 52.02 87.18 50.25 87.18C47.72 87.18 46.18 85.38 46.18 82.7C46.18 80.02 47.75 78.16 50.11 78.16C51.93 78.16 53.86 79.27 53.86 82.52L53.86 83.08L47.52 83.08C47.59 84.96 48.67 85.97 50.25 85.97C51.3 85.97 52.09 85.52 52.43 84.61L53.72 84.97ZM63.04 84.97C62.63 86.29 61.34 87.18 59.56 87.18C57.04 87.18 55.49 85.38 55.49 82.7C55.49 80.02 57.06 78.16 59.43 78.16C61.24 78.16 63.18 79.27 63.18 82.52L63.18 83.08L56.84 83.08C56.9 84.96 57.99 85.97 59.56 85.97C60.61 85.97 61.4 85.52 61.74 84.61L63.04 84.97ZM77.02 78.16C78.75 78.16 79.69 78.98 80.11 80.22L78.9 80.56C78.67 79.96 78.19 79.31 77.02 79.31C75.95 79.31 75.15 79.86 75.15 80.61C75.15 81.28 75.62 81.62 76.65 81.88L77.95 82.2C79.51 82.58 80.27 83.35 80.27 84.56C80.27 86.07 78.89 87.18 76.86 87.18C75.07 87.18 73.85 86.39 73.54 84.91L74.81 84.58C75.05 85.52 75.74 86 76.84 86C78.09 86 78.88 85.38 78.88 84.63C78.88 84.03 78.47 83.61 77.59 83.41L76.13 83.06C74.53 82.69 73.81 81.88 73.81 80.68C73.81 79.2 75.18 78.16 77.02 78.16ZM50.11 79.36C48.57 79.36 47.61 80.57 47.52 81.93L52.5 81.93C52.5 80.45 51.56 79.36 50.11 79.36ZM59.43 79.36C57.89 79.36 56.93 80.57 56.84 81.93L61.81 81.93C61.81 80.45 60.88 79.36 59.43 79.36Z" fill="#242C50" fill-opacity="1.000000" fill-rule="evenodd"/>
		</g>
		<rect id="Frame 2589" rx="14.500000" width="79.000000" height="94.000000" transform="translate(15.500000 1.500000)" stroke="#FFFFFF" stroke-opacity="1.000000" stroke-width="3.000000"/>
	</g>
</svg>
