<svg width="24" height="24" viewBox="0 0 24 24" fill="none" xmlns="http://www.w3.org/2000/svg">
<path d="M12.1586 10.87C12.0586 10.86 11.9386 10.86 11.8286 10.87C9.44859 10.79 7.55859 8.84 7.55859 6.44C7.55859 3.99 9.53859 2 11.9986 2C14.4486 2 16.4386 3.99 16.4386 6.44C16.4286 8.84 14.5386 10.79 12.1586 10.87Z" stroke="url(#paint0_linear_2856_1582)" stroke-width="1.5" stroke-linecap="round" stroke-linejoin="round"/>
<path d="M7.15875 14.56C4.73875 16.18 4.73875 18.82 7.15875 20.43C9.90875 22.27 14.4188 22.27 17.1688 20.43C19.5888 18.81 19.5888 16.17 17.1688 14.56C14.4288 12.73 9.91875 12.73 7.15875 14.56Z" stroke="url(#paint1_linear_2856_1582)" stroke-width="1.5" stroke-linecap="round" stroke-linejoin="round"/>
<defs>
<linearGradient id="paint0_linear_2856_1582" x1="11.9986" y1="2" x2="11.9986" y2="10.87" gradientUnits="userSpaceOnUse">
<stop stop-opacity="0.6"/>
<stop offset="1" stop-color="#7D8998"/>
</linearGradient>
<linearGradient id="paint1_linear_2856_1582" x1="12.1638" y1="13.1875" x2="12.1638" y2="21.81" gradientUnits="userSpaceOnUse">
<stop stop-opacity="0.6"/>
<stop offset="1" stop-color="#7D8998"/>
</linearGradient>
</defs>
</svg>
